<svg width="600" height="400" xmlns="http://www.w3.org/2000/svg">
  <!-- Background -->
  <rect width="600" height="400" fill="#F9F9FF" />
  
  <!-- Healthcare visualization -->
  <g>
    <!-- Medical cross symbol -->
    <rect x="40" y="40" width="80" height="80" rx="10" fill="#6C63FF" />
    <rect x="65" y="50" width="30" height="60" rx="5" fill="white" />
    <rect x="50" y="65" width="60" height="30" rx="5" fill="white" />
    
    <!-- Health monitoring visualization -->
    <g transform="translate(180, 80)">
      <!-- EKG line -->
      <polyline points="0,50 20,50 30,20 40,80 50,30 60,50 80,50 100,50 110,20 120,80 130,30 140,50 160,50 180,50 200,50 210,20 220,80 230,50 250,50" 
              stroke="#FF5252" 
              stroke-width="3" 
              fill="none" />
              
      <!-- Baseline -->
      <line x1="0" y1="50" x2="350" y2="50" stroke="#DEDEDE" stroke-width="1" stroke-dasharray="5,5" />
    </g>
    
    <!-- Patient data visualization -->
    <g transform="translate(300, 200)">
      <circle cx="0" cy="0" r="100" fill="none" stroke="#6C63FF" stroke-width="2" />
      <circle cx="0" cy="0" r="80" fill="none" stroke="#4A47F5" stroke-width="2" />
      <circle cx="0" cy="0" r="60" fill="none" stroke="#2C2A54" stroke-width="2" />
      <circle cx="0" cy="0" r="40" fill="none" stroke="#6C63FF" stroke-width="2" />
      <circle cx="0" cy="0" r="20" fill="none" stroke="#4A47F5" stroke-width="2" />
      
      <!-- Chart spokes -->
      <line x1="0" y1="0" x2="0" y2="-100" stroke="#DEDEDE" stroke-width="1" />
      <line x1="0" y1="0" x2="100" y2="0" stroke="#DEDEDE" stroke-width="1" />
      <line x1="0" y1="0" x2="0" y2="100" stroke="#DEDEDE" stroke-width="1" />
      <line x1="0" y1="0" x2="-100" y2="0" stroke="#DEDEDE" stroke-width="1" />
      <line x1="0" y1="0" x2="70.7" y2="-70.7" stroke="#DEDEDE" stroke-width="1" />
      <line x1="0" y1="0" x2="70.7" y2="70.7" stroke="#DEDEDE" stroke-width="1" />
      <line x1="0" y1="0" x2="-70.7" y2="70.7" stroke="#DEDEDE" stroke-width="1" />
      <line x1="0" y1="0" x2="-70.7" y2="-70.7" stroke="#DEDEDE" stroke-width="1" />
      
      <!-- Data points -->
      <polygon points="0,-70 75,0 0,60 -50,10" fill="#6C63FF" opacity="0.5" />
      <circle cx="0" cy="-70" r="5" fill="#6C63FF" />
      <circle cx="75" cy="0" r="5" fill="#6C63FF" />
      <circle cx="0" cy="60" r="5" fill="#6C63FF" />
      <circle cx="-50" cy="10" r="5" fill="#6C63FF" />
    </g>
  </g>
  
  <!-- Digital dashboard elements -->
  <g transform="translate(50, 180)">
    <!-- Main panel -->
    <rect x="0" y="0" width="180" height="180" rx="10" fill="#FFFFFF" stroke="#DEDEDE" stroke-width="2" />
    
    <!-- Panel header -->
    <rect x="0" y="0" width="180" height="40" rx="10" fill="#2C2A54" />
    <rect x="0" y="20" width="180" height="20" fill="#2C2A54" />
    <text x="15" y="25" font-family="Arial" font-size="14" fill="white">Patient Analytics</text>
    
    <!-- Stats -->
    <g transform="translate(15, 50)">
      <text x="0" y="15" font-family="Arial" font-size="12" fill="#2C2A54">Readmission Risk</text>
      <rect x="0" y="25" width="150" height="10" rx="5" fill="#E8EAF6" />
      <rect x="0" y="25" width="45" height="10" rx="5" fill="#4A47F5" />
      
      <text x="0" y="55" font-family="Arial" font-size="12" fill="#2C2A54">Recovery Rate</text>
      <rect x="0" y="65" width="150" height="10" rx="5" fill="#E8EAF6" />
      <rect x="0" y="65" width="120" height="10" rx="5" fill="#6C63FF" />
      
      <text x="0" y="95" font-family="Arial" font-size="12" fill="#2C2A54">Treatment Adherence</text>
      <rect x="0" y="105" width="150" height="10" rx="5" fill="#E8EAF6" />
      <rect x="0" y="105" width="100" height="10" rx="5" fill="#4A47F5" />
    </g>
    
    <!-- Bottom button -->
    <rect x="15" y="140" width="150" height="30" rx="15" fill="#6C63FF" />
    <text x="35" y="160" font-family="Arial" font-size="12" fill="white">View Patient Details</text>
  </g>
  
  <!-- AI prediction element -->
  <g transform="translate(500, 60)">
    <rect x="-30" y="-30" width="60" height="60" rx="30" fill="#6C63FF" />
    <text x="-15" y="5" font-family="Arial" font-size="14" font-weight="bold" fill="white">AI</text>
    
    <!-- Connection lines to patient data -->
    <line x1="0" y1="30" x2="-50" y2="80" stroke="#6C63FF" stroke-width="2" stroke-dasharray="5,5" />
    <line x1="0" y1="30" x2="-150" y2="140" stroke="#6C63FF" stroke-width="2" stroke-dasharray="5,5" />
    <line x1="0" y1="30" x2="-200" y2="40" stroke="#6C63FF" stroke-width="2" stroke-dasharray="5,5" />
  </g>
</svg>