<svg width="800" height="500" xmlns="http://www.w3.org/2000/svg">
  <!-- Background -->
  <rect width="800" height="500" fill="#F0F2F5" />
  
  <!-- Office environment -->
  <rect x="50" y="100" width="700" height="350" rx="10" fill="#FFFFFF" stroke="#DEDEDE" stroke-width="2" />
  
  <!-- Conference table -->
  <ellipse cx="400" cy="330" rx="280" ry="100" fill="#E8EAF6" stroke="#C5CAE9" stroke-width="2" />
  
  <!-- Team members -->
  <!-- Person 1 -->
  <g transform="translate(250, 250)">
    <circle cx="0" cy="0" r="40" fill="#6C63FF" />
    <circle cx="0" cy="-15" r="15" fill="#FFFFFF" />
    <path d="M-20,15 C-20,35 20,35 20,15 L20,5 C20,-5 -20,-5 -20,5 Z" fill="#FFFFFF" />
  </g>
  
  <!-- Person 2 -->
  <g transform="translate(350, 230)">
    <circle cx="0" cy="0" r="40" fill="#4A47F5" />
    <circle cx="0" cy="-15" r="15" fill="#FFFFFF" />
    <path d="M-20,15 C-20,35 20,35 20,15 L20,5 C20,-5 -20,-5 -20,5 Z" fill="#FFFFFF" />
  </g>
  
  <!-- Person 3 -->
  <g transform="translate(450, 250)">
    <circle cx="0" cy="0" r="40" fill="#2C2A54" />
    <circle cx="0" cy="-15" r="15" fill="#FFFFFF" />
    <path d="M-20,15 C-20,35 20,35 20,15 L20,5 C20,-5 -20,-5 -20,5 Z" fill="#FFFFFF" />
  </g>
  
  <!-- Person 4 (partially visible) -->
  <g transform="translate(530, 270)">
    <circle cx="0" cy="0" r="40" fill="#76E4F7" />
    <circle cx="0" cy="-15" r="15" fill="#FFFFFF" />
    <path d="M-20,15 C-20,35 20,35 20,15 L20,5 C20,-5 -20,-5 -20,5 Z" fill="#FFFFFF" />
  </g>
  
  <!-- Laptop on table -->
  <g transform="translate(400, 320)">
    <rect x="-45" y="-30" width="90" height="60" rx="5" fill="#2C2A54" />
    <rect x="-40" y="-25" width="80" height="50" rx="2" fill="#76E4F7" />
  </g>
  
  <!-- Digital display -->
  <g transform="translate(400, 150)">
    <rect x="-100" y="-60" width="200" height="120" rx="5" fill="#2C2A54" />
    <rect x="-95" y="-55" width="190" height="110" rx="2" fill="#F9F9FF" />
    
    <!-- Chart visualization -->
    <line x1="-70" y1="30" x2="70" y2="30" stroke="#DEDEDE" stroke-width="1" />
    <line x1="-70" y1="0" x2="70" y2="0" stroke="#DEDEDE" stroke-width="1" />
    <line x1="-70" y1="-30" x2="70" y2="-30" stroke="#DEDEDE" stroke-width="1" />
    
    <line x1="-70" y1="45" x2="-70" y2="-45" stroke="#DEDEDE" stroke-width="1" />
    
    <!-- Bar chart -->
    <rect x="-50" y="0" width="20" height="30" fill="#6C63FF" />
    <rect x="-20" y="-15" width="20" height="45" fill="#6C63FF" />
    <rect x="10" y="-30" width="20" height="60" fill="#6C63FF" />
    <rect x="40" y="-10" width="20" height="40" fill="#6C63FF" />
  </g>
  
  <!-- Abstract AI elements in background -->
  <g opacity="0.1">
    <circle cx="120" cy="150" r="40" fill="none" stroke="#6C63FF" stroke-width="2" />
    <circle cx="120" cy="150" r="20" fill="none" stroke="#6C63FF" stroke-width="2" />
    <line x1="120" y1="110" x2="120" y2="90" stroke="#6C63FF" stroke-width="2" />
    <line x1="120" y1="190" x2="120" y2="210" stroke="#6C63FF" stroke-width="2" />
    <line x1="80" y1="150" x2="60" y2="150" stroke="#6C63FF" stroke-width="2" />
    <line x1="160" y1="150" x2="180" y2="150" stroke="#6C63FF" stroke-width="2" />
    
    <circle cx="700" cy="400" r="40" fill="none" stroke="#6C63FF" stroke-width="2" />
    <circle cx="700" cy="400" r="20" fill="none" stroke="#6C63FF" stroke-width="2" />
    <line x1="700" y1="360" x2="700" y2="340" stroke="#6C63FF" stroke-width="2" />
    <line x1="700" y1="440" x2="700" y2="460" stroke="#6C63FF" stroke-width="2" />
    <line x1="660" y1="400" x2="640" y2="400" stroke="#6C63FF" stroke-width="2" />
    <line x1="740" y1="400" x2="760" y2="400" stroke="#6C63FF" stroke-width="2" />
  </g>
</svg>